<svg width="437" height="125" viewBox="0 0 437 125" fill="none" xmlns="http://www.w3.org/2000/svg">
<circle cx="69" cy="65" r="16" fill="#FC8C3C"/>
<path d="M0 35H14C47.1371 35 74 61.8629 74 95V107H60C26.8629 107 0 80.1371 0 47V35Z" fill="#4FE4C4"/>
<path d="M69 77C69 43.8629 95.8629 17 129 17H141V47C141 80.1371 114.137 107 81 107H69V77Z" fill="#B2F260"/>
<path d="M186.519 101V28.9H231.015V38.994H197.643V59.8H228.337V69.894H197.643V101H186.519ZM242.15 101V28.9H252.759V101H242.15ZM284.263 102.442C280.623 102.442 277.362 101.824 274.478 100.588C271.662 99.352 269.396 97.5323 267.68 95.129C266.032 92.7257 265.208 89.8073 265.208 86.374C265.208 82.872 266.032 79.988 267.68 77.722C269.396 75.3873 271.697 73.6363 274.581 72.469C277.533 71.3017 280.864 70.718 284.572 70.718H300.022V67.422C300.022 64.4693 299.129 62.1003 297.344 60.315C295.558 58.5297 292.812 57.637 289.104 57.637C285.464 57.637 282.683 58.4953 280.761 60.212C278.838 61.9287 277.568 64.1603 276.95 66.907L267.062 63.714C267.886 60.9673 269.19 58.4953 270.976 56.298C272.83 54.032 275.267 52.2123 278.289 50.839C281.31 49.4657 284.949 48.779 289.207 48.779C295.799 48.779 300.983 50.4613 304.76 53.826C308.536 57.1907 310.425 61.963 310.425 68.143V89.052C310.425 91.112 311.386 92.142 313.309 92.142H317.635V101H309.704C307.3 101 305.343 100.382 303.833 99.146C302.322 97.91 301.567 96.2277 301.567 94.099V93.79H300.022C299.472 94.82 298.648 96.0217 297.55 97.395C296.451 98.7683 294.837 99.97 292.709 101C290.58 101.961 287.765 102.442 284.263 102.442ZM285.808 93.687C290.065 93.687 293.498 92.4853 296.108 90.082C298.717 87.61 300.022 84.2453 300.022 79.988V78.958H285.19C282.374 78.958 280.108 79.576 278.392 80.812C276.675 81.9793 275.817 83.7303 275.817 86.065C275.817 88.3997 276.709 90.2537 278.495 91.627C280.28 93.0003 282.718 93.687 285.808 93.687ZM327.95 101V50.221H338.353V56.195H340.001C340.825 54.0663 342.13 52.5213 343.915 51.56C345.769 50.53 348.035 50.015 350.713 50.015H356.79V59.594H350.301C346.868 59.594 344.052 60.5553 341.855 62.478C339.658 64.332 338.559 67.216 338.559 71.13V101H327.95ZM382.133 102.442C378.494 102.442 375.232 101.824 372.348 100.588C369.533 99.352 367.267 97.5323 365.55 95.129C363.902 92.7257 363.078 89.8073 363.078 86.374C363.078 82.872 363.902 79.988 365.55 77.722C367.267 75.3873 369.567 73.6363 372.451 72.469C375.404 71.3017 378.734 70.718 382.442 70.718H397.892V67.422C397.892 64.4693 396.999 62.1003 395.214 60.315C393.429 58.5297 390.682 57.637 386.974 57.637C383.335 57.637 380.554 58.4953 378.631 60.212C376.708 61.9287 375.438 64.1603 374.82 66.907L364.932 63.714C365.756 60.9673 367.061 58.4953 368.846 56.298C370.7 54.032 373.138 52.2123 376.159 50.839C379.18 49.4657 382.82 48.779 387.077 48.779C393.669 48.779 398.853 50.4613 402.63 53.826C406.407 57.1907 408.295 61.963 408.295 68.143V89.052C408.295 91.112 409.256 92.142 411.179 92.142H415.505V101H407.574C405.171 101 403.214 100.382 401.703 99.146C400.192 97.91 399.437 96.2277 399.437 94.099V93.79H397.892C397.343 94.82 396.519 96.0217 395.42 97.395C394.321 98.7683 392.708 99.97 390.579 101C388.45 101.961 385.635 102.442 382.133 102.442ZM383.678 93.687C387.935 93.687 391.369 92.4853 393.978 90.082C396.587 87.61 397.892 84.2453 397.892 79.988V78.958H383.06C380.245 78.958 377.979 79.576 376.262 80.812C374.545 81.9793 373.687 83.7303 373.687 86.065C373.687 88.3997 374.58 90.2537 376.365 91.627C378.15 93.0003 380.588 93.687 383.678 93.687Z" fill="#333333"/>
</svg>
