<svg width="1623" height="1051" viewBox="0 0 1623 1051" fill="none" xmlns="http://www.w3.org/2000/svg">
<g clip-path="url(#clip0_2315_2)">
<rect width="1623" height="1051" fill="#4FE4C4"/>
<g filter="url(#filter0_dd_2315_2)">
<rect x="125" y="133" width="1373" height="940" rx="50" fill="#FCFCFC" shape-rendering="crispEdges"/>
<rect x="1347" y="186" width="57" height="13" rx="6.5" fill="#222222" fill-opacity="0.2"/>
<rect x="1412" y="183" width="52" height="20" rx="10" fill="#333333" fill-opacity="0.3"/>
<rect x="434" y="301" width="37.8" height="9" rx="4.5" fill="#222222" fill-opacity="0.2"/>
<rect x="434" y="318" width="753" height="10" rx="5" fill="#222222" fill-opacity="0.2"/>
<rect x="434" y="339" width="352.721" height="10" rx="5" fill="#222222" fill-opacity="0.2"/>
<rect x="434" y="360" width="85.8684" height="10" rx="5" fill="#222222" fill-opacity="0.2"/>
<rect x="434" y="401" width="37.8" height="9" rx="4.5" fill="#222222" fill-opacity="0.2"/>
<rect x="434" y="513" width="37.8" height="9" rx="4.5" fill="#222222" fill-opacity="0.2"/>
<rect x="434" y="530" width="718" height="10" rx="5" fill="#222222" fill-opacity="0.2"/>
<rect x="434" y="551" width="671.393" height="10" rx="5" fill="#222222" fill-opacity="0.2"/>
<rect x="434" y="572" width="531.572" height="10" rx="5" fill="#222222" fill-opacity="0.2"/>
<rect x="434" y="593" width="142.34" height="10" rx="5" fill="#222222" fill-opacity="0.2"/>
<rect x="434" y="938" width="37.8" height="9" rx="4.5" fill="#222222" fill-opacity="0.2"/>
<rect x="434" y="955" width="570" height="10" rx="5" fill="#222222" fill-opacity="0.2"/>
<rect x="434" y="1010" width="37.8" height="9" rx="4.5" fill="#222222" fill-opacity="0.2"/>
<rect x="434" y="1027" width="162" height="10" rx="5" fill="#222222" fill-opacity="0.2"/>
<rect x="434" y="637" width="24" height="24" rx="12" fill="#4FE4C4"/>
<rect x="477" y="643" width="120" height="13" rx="6.5" fill="#333333" fill-opacity="0.3"/>
<rect width="37.8" height="9" rx="4.5" transform="matrix(1 0 0 -1 159 806)" fill="#222222" fill-opacity="0.2"/>
<rect width="266" height="10" rx="5" transform="matrix(1 0 0 -1 159 789)" fill="#222222" fill-opacity="0.2"/>
<rect x="239" y="178" width="650" height="27" rx="13.5" fill="#333333" fill-opacity="0.3"/>
</g>
<rect y="829" width="1623" height="222" fill="white"/>
<path d="M125.696 962V901.712H133.184V962H125.696ZM185.242 962V935.024C185.242 930.64 184.186 927.312 182.074 925.04C179.994 922.736 177.146 921.584 173.53 921.584C170.778 921.584 168.394 922.336 166.378 923.84C164.362 925.344 162.81 927.504 161.722 930.32C160.634 933.104 160.09 936.432 160.09 940.304H157.21C157.21 934.96 157.914 930.4 159.322 926.624C160.73 922.848 162.778 919.968 165.466 917.984C168.186 915.968 171.482 914.96 175.354 914.96C178.97 914.96 182.058 915.776 184.618 917.408C187.21 919.008 189.194 921.312 190.57 924.32C191.946 927.328 192.634 930.896 192.634 935.024V962H185.242ZM152.602 962V916.112H159.034L160.09 926.672V962H152.602ZM224.652 963.152C222.156 963.152 219.916 962.672 217.932 961.712C215.948 960.752 214.38 959.312 213.228 957.392C212.076 955.472 211.5 953.072 211.5 950.192V903.344H218.892V950C218.892 954.736 221.1 957.104 225.516 957.104C226.828 957.104 228.092 956.96 229.308 956.672C230.556 956.384 231.948 955.952 233.484 955.376L234.54 960.752C232.908 961.456 231.276 962.032 229.644 962.48C228.044 962.928 226.38 963.152 224.652 963.152ZM204.108 921.296V916.112H233.388V921.296H204.108ZM262.57 963.152C258.602 963.152 255.05 962.144 251.914 960.128C248.81 958.08 246.346 955.248 244.522 951.632C242.73 948.016 241.834 943.856 241.834 939.152C241.834 934.128 242.73 929.808 244.522 926.192C246.314 922.576 248.762 919.808 251.866 917.888C255.002 915.936 258.57 914.96 262.57 914.96C266.058 914.96 269.034 915.664 271.498 917.072C273.962 918.48 275.946 920.384 277.45 922.784C278.954 925.184 279.994 927.904 280.57 930.944C281.178 933.952 281.354 937.072 281.098 940.304H247.882V935.696H276.154L273.946 937.136C274.042 935.248 273.93 933.36 273.61 931.472C273.322 929.584 272.762 927.856 271.93 926.288C271.098 924.688 269.93 923.408 268.426 922.448C266.922 921.488 265.002 921.008 262.666 921.008C259.722 921.008 257.258 921.76 255.274 923.264C253.29 924.768 251.802 926.752 250.81 929.216C249.818 931.648 249.322 934.288 249.322 937.136V940.208C249.322 943.408 249.802 946.272 250.762 948.8C251.754 951.328 253.226 953.328 255.178 954.8C257.13 956.272 259.594 957.008 262.57 957.008C265.546 957.008 267.994 956.288 269.914 954.848C271.834 953.408 273.002 951.28 273.418 948.464H281.194C280.714 951.504 279.626 954.128 277.93 956.336C276.234 958.512 274.074 960.192 271.45 961.376C268.826 962.56 265.866 963.152 262.57 963.152ZM295.946 962V916.016H303.434V962H295.946ZM301.13 941.264C301.13 935.44 301.69 930.608 302.81 926.768C303.93 922.896 305.562 920.016 307.706 918.128C309.882 916.208 312.522 915.248 315.626 915.248C316.65 915.248 317.578 915.328 318.41 915.488C319.274 915.616 320.138 915.824 321.002 916.112L320.522 923.504C319.626 923.216 318.65 922.976 317.594 922.784C316.538 922.56 315.594 922.448 314.762 922.448C312.042 922.448 309.85 923.232 308.186 924.8C306.522 926.336 305.306 928.512 304.538 931.328C303.802 934.144 303.434 937.456 303.434 941.264H301.13ZM322.666 916.112H331.21L345.609 955.568H344.554L358.954 916.112H367.498L349.161 962H341.002L322.666 916.112ZM383.139 905.264C381.603 905.264 380.387 904.832 379.491 903.968C378.595 903.072 378.147 901.904 378.147 900.464C378.147 899.056 378.595 897.936 379.491 897.104C380.387 896.272 381.603 895.856 383.139 895.856C384.675 895.856 385.891 896.272 386.787 897.104C387.683 897.936 388.131 899.056 388.131 900.464C388.131 901.904 387.683 903.072 386.787 903.968C385.891 904.832 384.675 905.264 383.139 905.264ZM379.395 962V916.016H386.883V962H379.395ZM423.445 963.152C419.477 963.152 415.925 962.144 412.789 960.128C409.685 958.08 407.221 955.248 405.397 951.632C403.605 948.016 402.709 943.856 402.709 939.152C402.709 934.128 403.605 929.808 405.397 926.192C407.189 922.576 409.637 919.808 412.741 917.888C415.877 915.936 419.445 914.96 423.445 914.96C426.933 914.96 429.909 915.664 432.373 917.072C434.837 918.48 436.821 920.384 438.325 922.784C439.829 925.184 440.869 927.904 441.445 930.944C442.053 933.952 442.229 937.072 441.973 940.304H408.757V935.696H437.029L434.821 937.136C434.917 935.248 434.805 933.36 434.485 931.472C434.197 929.584 433.637 927.856 432.805 926.288C431.973 924.688 430.805 923.408 429.301 922.448C427.797 921.488 425.877 921.008 423.541 921.008C420.597 921.008 418.133 921.76 416.149 923.264C414.165 924.768 412.677 926.752 411.685 929.216C410.693 931.648 410.197 934.288 410.197 937.136V940.208C410.197 943.408 410.677 946.272 411.637 948.8C412.629 951.328 414.101 953.328 416.053 954.8C418.005 956.272 420.469 957.008 423.445 957.008C426.421 957.008 428.869 956.288 430.789 954.848C432.709 953.408 433.877 951.28 434.293 948.464H442.069C441.589 951.504 440.501 954.128 438.805 956.336C437.109 958.512 434.949 960.192 432.325 961.376C429.701 962.56 426.741 963.152 423.445 963.152ZM448.853 916.112H456.629L468.341 954.416H467.381L478.805 918.32H485.045L496.373 954.512H495.509L507.221 916.112H514.709L499.637 962H492.341L481.205 928.112H482.357L471.317 962H464.021L448.853 916.112Z" fill="#333333"/>
<rect x="181" y="169" width="24" height="24" rx="12" fill="#FC8C3C"/>
<rect x="167" y="193" width="24" height="24" rx="12" fill="#4FE4C4"/>
<rect x="196" y="194" width="22" height="22" rx="11" stroke="#B2F260" stroke-width="2"/>
</g>
<defs>
<filter id="filter0_dd_2315_2" x="122" y="133" width="1878" height="1068" filterUnits="userSpaceOnUse" color-interpolation-filters="sRGB">
<feFlood flood-opacity="0" result="BackgroundImageFix"/>
<feColorMatrix in="SourceAlpha" type="matrix" values="0 0 0 0 0 0 0 0 0 0 0 0 0 0 0 0 0 0 127 0" result="hardAlpha"/>
<feMorphology radius="1" operator="erode" in="SourceAlpha" result="effect1_dropShadow_2315_2"/>
<feOffset dy="4"/>
<feGaussianBlur stdDeviation="2"/>
<feComposite in2="hardAlpha" operator="out"/>
<feColorMatrix type="matrix" values="0 0 0 0 0.0470588 0 0 0 0 0.0470588 0 0 0 0 0.0509804 0 0 0 0.05 0"/>
<feBlend mode="normal" in2="BackgroundImageFix" result="effect1_dropShadow_2315_2"/>
<feColorMatrix in="SourceAlpha" type="matrix" values="0 0 0 0 0 0 0 0 0 0 0 0 0 0 0 0 0 0 127 0" result="hardAlpha"/>
<feMorphology radius="1" operator="erode" in="SourceAlpha" result="effect2_dropShadow_2315_2"/>
<feOffset dy="4"/>
<feGaussianBlur stdDeviation="2"/>
<feComposite in2="hardAlpha" operator="out"/>
<feColorMatrix type="matrix" values="0 0 0 0 0.0470588 0 0 0 0 0.0470588 0 0 0 0 0.0509804 0 0 0 0.1 0"/>
<feBlend mode="normal" in2="effect1_dropShadow_2315_2" result="effect2_dropShadow_2315_2"/>
<feBlend mode="normal" in="SourceGraphic" in2="effect2_dropShadow_2315_2" result="shape"/>
</filter>
<clipPath id="clip0_2315_2">
<rect width="1623" height="1051" fill="white"/>
</clipPath>
</defs>
</svg>
