<svg width="1623" height="1051" viewBox="0 0 1623 1051" fill="none" xmlns="http://www.w3.org/2000/svg">
<g clip-path="url(#clip0_2314_2)">
<rect width="1623" height="1051" fill="#B2F260"/>
<g filter="url(#filter0_dd_2314_2)">
<rect x="125" y="133" width="1373" height="940" rx="50" fill="#FCFCFC" shape-rendering="crispEdges"/>
<rect x="165" y="180" width="224.438" height="11" rx="5.5" fill="#222222" fill-opacity="0.2"/>
<rect x="165" y="211" width="650" height="27" rx="13.5" fill="#333333" fill-opacity="0.3"/>
<rect x="182" y="306" width="24" height="24" rx="12" fill="#FC8C3C"/>
<rect x="168" y="330" width="24" height="24" rx="12" fill="#4FE4C4"/>
<rect x="197" y="331" width="22" height="22" rx="11" stroke="#B2F260" stroke-width="2"/>
<rect x="231" y="321" width="120" height="13" rx="6.5" fill="#333333" fill-opacity="0.3"/>
<rect x="165" y="397" width="57" height="13" rx="6.5" fill="#222222" fill-opacity="0.2"/>
<rect x="230" y="394" width="52" height="20" rx="10" fill="#333333" fill-opacity="0.3"/>
<rect x="165" y="508" width="94.5" height="11" rx="5.5" fill="#222222" fill-opacity="0.2"/>
<rect x="165" y="531" width="650" height="10" rx="5" fill="#333333" fill-opacity="0.3"/>
<rect x="165" y="552" width="331" height="10" rx="5" fill="#333333" fill-opacity="0.3"/>
<rect x="165" y="573" width="267" height="10" rx="5" fill="#333333" fill-opacity="0.3"/>
<rect x="165" y="594" width="269" height="10" rx="5" fill="#333333" fill-opacity="0.3"/>
<rect x="165" y="615" width="554" height="10" rx="5" fill="#333333" fill-opacity="0.3"/>
<rect x="165" y="636" width="196" height="10" rx="5" fill="#333333" fill-opacity="0.3"/>
<rect x="165" y="657" width="345" height="10" rx="5" fill="#333333" fill-opacity="0.3"/>
<rect x="165" y="678" width="335" height="10" rx="5" fill="#333333" fill-opacity="0.3"/>
<rect x="165" y="699" width="123" height="10" rx="5" fill="#333333" fill-opacity="0.3"/>
<rect x="165" y="720" width="508" height="10" rx="5" fill="#333333" fill-opacity="0.3"/>
<rect x="165" y="741" width="477" height="10" rx="5" fill="#333333" fill-opacity="0.3"/>
<rect x="895" y="186" width="37.8" height="9" rx="4.5" fill="#222222" fill-opacity="0.2"/>
<rect x="895" y="203" width="570" height="10" rx="5" fill="#222222" fill-opacity="0.2"/>
<rect x="895" y="224" width="267" height="10" rx="5" fill="#222222" fill-opacity="0.2"/>
<rect x="895" y="245" width="65" height="10" rx="5" fill="#222222" fill-opacity="0.2"/>
<rect x="895" y="286" width="37.8" height="9" rx="4.5" fill="#222222" fill-opacity="0.2"/>
<rect x="895" y="303" width="570" height="10" rx="5" fill="#222222" fill-opacity="0.2"/>
<rect x="895" y="358" width="37.8" height="9" rx="4.5" fill="#222222" fill-opacity="0.2"/>
<rect x="895" y="375" width="570" height="10" rx="5" fill="#222222" fill-opacity="0.2"/>
<rect x="895" y="396" width="260" height="10" rx="5" fill="#222222" fill-opacity="0.2"/>
<rect x="895" y="417" width="560" height="10" rx="5" fill="#222222" fill-opacity="0.2"/>
<rect x="895" y="458" width="37.8" height="9" rx="4.5" fill="#222222" fill-opacity="0.2"/>
<rect x="895" y="475" width="570" height="10" rx="5" fill="#222222" fill-opacity="0.2"/>
<rect x="895" y="496" width="533" height="10" rx="5" fill="#222222" fill-opacity="0.2"/>
<rect x="895" y="517" width="422" height="10" rx="5" fill="#222222" fill-opacity="0.2"/>
<rect x="895" y="538" width="113" height="10" rx="5" fill="#222222" fill-opacity="0.2"/>
<rect x="895" y="586" width="37.8" height="9" rx="4.5" fill="#222222" fill-opacity="0.2"/>
<rect x="895" y="603" width="570" height="10" rx="5" fill="#222222" fill-opacity="0.2"/>
<rect x="895" y="658" width="37.8" height="9" rx="4.5" fill="#222222" fill-opacity="0.2"/>
<rect x="895" y="675" width="570" height="10" rx="5" fill="#222222" fill-opacity="0.2"/>
<rect x="895" y="696" width="532" height="10" rx="5" fill="#222222" fill-opacity="0.2"/>
<rect x="895" y="717" width="67" height="10" rx="5" fill="#222222" fill-opacity="0.2"/>
<rect x="895" y="758" width="37.8" height="9" rx="4.5" fill="#222222" fill-opacity="0.2"/>
<rect x="895" y="775" width="570" height="10" rx="5" fill="#222222" fill-opacity="0.2"/>
<rect x="895" y="796" width="368" height="10" rx="5" fill="#222222" fill-opacity="0.2"/>
<rect x="895" y="817" width="144" height="10" rx="5" fill="#222222" fill-opacity="0.2"/>
<rect x="895" y="858" width="37.8" height="9" rx="4.5" fill="#222222" fill-opacity="0.2"/>
<rect x="895" y="875" width="570" height="10" rx="5" fill="#222222" fill-opacity="0.2"/>
<rect x="895" y="930" width="37.8" height="9" rx="4.5" fill="#222222" fill-opacity="0.2"/>
<rect x="895" y="947" width="162" height="10" rx="5" fill="#222222" fill-opacity="0.2"/>
<rect x="895" y="1002" width="37.8" height="9" rx="4.5" fill="#222222" fill-opacity="0.2"/>
<rect x="895" y="1019" width="205.2" height="10" rx="5" fill="#222222" fill-opacity="0.2"/>
</g>
<rect y="829" width="1623" height="222" fill="white"/>
<path d="M144.992 963.152C140.96 963.152 137.264 962.432 133.904 960.992C130.544 959.52 127.84 957.36 125.792 954.512C123.744 951.664 122.688 948.144 122.624 943.952H129.92C129.92 946.768 130.608 949.088 131.984 950.912C133.36 952.704 135.184 954.048 137.456 954.944C139.728 955.808 142.208 956.24 144.896 956.24C147.808 956.24 150.336 955.776 152.48 954.848C154.624 953.92 156.272 952.704 157.424 951.2C158.608 949.664 159.2 947.984 159.2 946.16C159.2 943.6 158.416 941.536 156.848 939.968C155.28 938.368 152.96 937.072 149.888 936.08L139.232 932.336C134.24 930.544 130.464 928.496 127.904 926.192C125.344 923.888 124.064 920.656 124.064 916.496C124.064 911.824 125.856 908.016 129.44 905.072C133.056 902.128 138.176 900.656 144.8 900.656C150.944 900.656 155.744 902.08 159.2 904.928C162.656 907.744 164.64 911.536 165.152 916.304H157.76C157.28 913.52 155.968 911.36 153.824 909.824C151.712 908.256 148.704 907.472 144.8 907.472C140.832 907.472 137.744 908.352 135.536 910.112C133.328 911.872 132.224 914.096 132.224 916.784C132.224 918.992 132.912 920.752 134.288 922.064C135.696 923.344 137.888 924.496 140.864 925.52L153.344 929.84C157.664 931.28 161.072 933.296 163.568 935.888C166.096 938.48 167.36 941.84 167.36 945.968C167.36 949.168 166.496 952.064 164.768 954.656C163.072 957.248 160.56 959.312 157.232 960.848C153.904 962.384 149.824 963.152 144.992 963.152ZM204.559 963.152C201.199 963.152 198.271 962.384 195.775 960.848C193.311 959.312 191.407 957.072 190.063 954.128C188.719 951.152 188.047 947.536 188.047 943.28H191.215C191.215 946.128 191.807 948.528 192.991 950.48C194.175 952.432 195.711 953.92 197.599 954.944C199.519 955.936 201.551 956.432 203.695 956.432C205.999 956.432 208.207 955.776 210.319 954.464C212.431 953.12 214.159 951.152 215.503 948.56C216.847 945.968 217.519 942.768 217.519 938.96C217.519 935.312 216.895 932.192 215.647 929.6C214.431 927.008 212.783 925.024 210.703 923.648C208.623 922.272 206.319 921.584 203.791 921.584C201.615 921.584 199.567 922.112 197.647 923.168C195.727 924.224 194.175 925.776 192.991 927.824C191.807 929.84 191.215 932.336 191.215 935.312H188.047C188.047 930.864 188.783 927.136 190.255 924.128C191.727 921.088 193.727 918.8 196.255 917.264C198.783 915.728 201.615 914.96 204.751 914.96C208.335 914.96 211.679 915.92 214.783 917.84C217.887 919.76 220.399 922.512 222.319 926.096C224.239 929.68 225.199 933.968 225.199 938.96C225.199 944.016 224.223 948.352 222.271 951.968C220.351 955.584 217.823 958.352 214.687 960.272C211.551 962.192 208.175 963.152 204.559 963.152ZM183.727 984.56V916.112H189.967L191.215 926.864V984.56H183.727ZM255.82 963.152C251.852 963.152 248.3 962.144 245.164 960.128C242.06 958.08 239.596 955.248 237.772 951.632C235.98 948.016 235.084 943.856 235.084 939.152C235.084 934.128 235.98 929.808 237.772 926.192C239.564 922.576 242.012 919.808 245.116 917.888C248.252 915.936 251.82 914.96 255.82 914.96C259.308 914.96 262.284 915.664 264.748 917.072C267.212 918.48 269.196 920.384 270.7 922.784C272.204 925.184 273.244 927.904 273.82 930.944C274.428 933.952 274.604 937.072 274.348 940.304H241.132V935.696H269.404L267.196 937.136C267.292 935.248 267.18 933.36 266.86 931.472C266.572 929.584 266.012 927.856 265.18 926.288C264.348 924.688 263.18 923.408 261.676 922.448C260.172 921.488 258.252 921.008 255.916 921.008C252.972 921.008 250.508 921.76 248.524 923.264C246.54 924.768 245.052 926.752 244.06 929.216C243.068 931.648 242.572 934.288 242.572 937.136V940.208C242.572 943.408 243.052 946.272 244.012 948.8C245.004 951.328 246.476 953.328 248.428 954.8C250.38 956.272 252.844 957.008 255.82 957.008C258.796 957.008 261.244 956.288 263.164 954.848C265.084 953.408 266.252 951.28 266.668 948.464H274.444C273.964 951.504 272.876 954.128 271.18 956.336C269.484 958.512 267.324 960.192 264.7 961.376C262.076 962.56 259.116 963.152 255.82 963.152ZM305.132 963.152C301.164 963.152 297.612 962.144 294.476 960.128C291.372 958.08 288.908 955.248 287.084 951.632C285.292 948.016 284.396 943.856 284.396 939.152C284.396 934.128 285.292 929.808 287.084 926.192C288.876 922.576 291.324 919.808 294.428 917.888C297.564 915.936 301.132 914.96 305.132 914.96C308.62 914.96 311.596 915.664 314.06 917.072C316.524 918.48 318.508 920.384 320.012 922.784C321.516 925.184 322.556 927.904 323.132 930.944C323.74 933.952 323.916 937.072 323.66 940.304H290.444V935.696H318.716L316.508 937.136C316.604 935.248 316.492 933.36 316.172 931.472C315.884 929.584 315.324 927.856 314.492 926.288C313.66 924.688 312.492 923.408 310.988 922.448C309.484 921.488 307.564 921.008 305.228 921.008C302.284 921.008 299.82 921.76 297.836 923.264C295.852 924.768 294.364 926.752 293.372 929.216C292.38 931.648 291.884 934.288 291.884 937.136V940.208C291.884 943.408 292.364 946.272 293.324 948.8C294.316 951.328 295.788 953.328 297.74 954.8C299.692 956.272 302.156 957.008 305.132 957.008C308.108 957.008 310.556 956.288 312.476 954.848C314.396 953.408 315.564 951.28 315.98 948.464H323.756C323.276 951.504 322.188 954.128 320.492 956.336C318.796 958.512 316.636 960.192 314.012 961.376C311.388 962.56 308.428 963.152 305.132 963.152ZM354.637 963.152C350.957 963.152 347.517 962.16 344.317 960.176C341.149 958.192 338.589 955.392 336.637 951.776C334.685 948.16 333.709 943.888 333.709 938.96C333.709 933.904 334.685 929.584 336.637 926C338.589 922.416 341.149 919.68 344.317 917.792C347.517 915.904 350.957 914.96 354.637 914.96C357.229 914.96 359.549 915.36 361.597 916.16C363.677 916.928 365.485 918 367.021 919.376C368.557 920.752 369.821 922.32 370.813 924.08C371.837 925.808 372.589 927.632 373.069 929.552L365.389 930.224C364.589 927.568 363.245 925.472 361.357 923.936C359.501 922.368 357.229 921.584 354.541 921.584C352.269 921.584 350.125 922.24 348.109 923.552C346.125 924.832 344.509 926.768 343.261 929.36C342.013 931.92 341.389 935.12 341.389 938.96C341.389 942.512 341.949 945.6 343.069 948.224C344.221 950.816 345.789 952.832 347.773 954.272C349.757 955.712 352.013 956.432 354.541 956.432C358.093 956.432 360.781 955.568 362.605 953.84C364.461 952.08 365.389 949.648 365.389 946.544H373.069C373.069 949.744 372.317 952.592 370.813 955.088C369.309 957.584 367.165 959.552 364.381 960.992C361.629 962.432 358.381 963.152 354.637 963.152ZM420.649 962V935.024C420.649 930.64 419.593 927.312 417.481 925.04C415.401 922.736 412.553 921.584 408.937 921.584C406.185 921.584 403.801 922.336 401.785 923.84C399.769 925.344 398.217 927.504 397.129 930.32C396.041 933.104 395.497 936.432 395.497 940.304H392.617C392.617 934.96 393.321 930.4 394.729 926.624C396.137 922.848 398.185 919.968 400.873 917.984C403.593 915.968 406.889 914.96 410.761 914.96C414.377 914.96 417.465 915.776 420.025 917.408C422.617 919.008 424.601 921.312 425.977 924.32C427.353 927.328 428.041 930.896 428.041 935.024V962H420.649ZM388.009 962V896.528H395.497V962H388.009Z" fill="#333333"/>
</g>
<defs>
<filter id="filter0_dd_2314_2" x="122" y="133" width="1426" height="1068" filterUnits="userSpaceOnUse" color-interpolation-filters="sRGB">
<feFlood flood-opacity="0" result="BackgroundImageFix"/>
<feColorMatrix in="SourceAlpha" type="matrix" values="0 0 0 0 0 0 0 0 0 0 0 0 0 0 0 0 0 0 127 0" result="hardAlpha"/>
<feMorphology radius="1" operator="erode" in="SourceAlpha" result="effect1_dropShadow_2314_2"/>
<feOffset dy="4"/>
<feGaussianBlur stdDeviation="2"/>
<feComposite in2="hardAlpha" operator="out"/>
<feColorMatrix type="matrix" values="0 0 0 0 0.0470588 0 0 0 0 0.0470588 0 0 0 0 0.0509804 0 0 0 0.05 0"/>
<feBlend mode="normal" in2="BackgroundImageFix" result="effect1_dropShadow_2314_2"/>
<feColorMatrix in="SourceAlpha" type="matrix" values="0 0 0 0 0 0 0 0 0 0 0 0 0 0 0 0 0 0 127 0" result="hardAlpha"/>
<feMorphology radius="1" operator="erode" in="SourceAlpha" result="effect2_dropShadow_2314_2"/>
<feOffset dy="4"/>
<feGaussianBlur stdDeviation="2"/>
<feComposite in2="hardAlpha" operator="out"/>
<feColorMatrix type="matrix" values="0 0 0 0 0.0470588 0 0 0 0 0.0470588 0 0 0 0 0.0509804 0 0 0 0.1 0"/>
<feBlend mode="normal" in2="effect1_dropShadow_2314_2" result="effect2_dropShadow_2314_2"/>
<feBlend mode="normal" in="SourceGraphic" in2="effect2_dropShadow_2314_2" result="shape"/>
</filter>
<clipPath id="clip0_2314_2">
<rect width="1623" height="1051" fill="white"/>
</clipPath>
</defs>
</svg>
