<svg width="1430" height="1061" viewBox="0 0 1430 1061" fill="none" xmlns="http://www.w3.org/2000/svg">
<rect width="1430" height="979" rx="50" fill="white"/>
<rect x="40" y="47" width="224.438" height="11" rx="5.5" fill="#222222" fill-opacity="0.2"/>
<rect x="40" y="78" width="650" height="27" rx="13.5" fill="#333333" fill-opacity="0.3"/>
<rect x="57" y="173" width="24" height="24" rx="12" fill="#FC8C3C"/>
<rect x="43" y="197" width="24" height="24" rx="12" fill="#4FE4C4"/>
<rect x="72" y="198" width="22" height="22" rx="11" stroke="#B2F260" stroke-width="2"/>
<rect x="106" y="188" width="120" height="13" rx="6.5" fill="#333333" fill-opacity="0.3"/>
<rect x="40" y="264" width="57" height="13" rx="6.5" fill="#222222" fill-opacity="0.2"/>
<rect x="105" y="261" width="52" height="20" rx="10" fill="#333333" fill-opacity="0.3"/>
<rect x="40" y="375" width="94.5" height="11" rx="5.5" fill="#222222" fill-opacity="0.2"/>
<rect x="40" y="398" width="650" height="10" rx="5" fill="#333333" fill-opacity="0.3"/>
<rect x="40" y="419" width="331" height="10" rx="5" fill="#333333" fill-opacity="0.3"/>
<rect x="40" y="440" width="267" height="10" rx="5" fill="#333333" fill-opacity="0.3"/>
<rect x="40" y="461" width="269" height="10" rx="5" fill="#333333" fill-opacity="0.3"/>
<rect x="40" y="482" width="554" height="10" rx="5" fill="#333333" fill-opacity="0.3"/>
<rect x="40" y="503" width="196" height="10" rx="5" fill="#333333" fill-opacity="0.3"/>
<rect x="40" y="524" width="345" height="10" rx="5" fill="#333333" fill-opacity="0.3"/>
<rect x="40" y="545" width="335" height="10" rx="5" fill="#333333" fill-opacity="0.3"/>
<rect x="40" y="566" width="123" height="10" rx="5" fill="#333333" fill-opacity="0.3"/>
<rect x="40" y="587" width="508" height="10" rx="5" fill="#333333" fill-opacity="0.3"/>
<rect x="40" y="608" width="477" height="10" rx="5" fill="#333333" fill-opacity="0.3"/>
<rect x="770" y="53" width="37.8" height="9" rx="4.5" fill="#222222" fill-opacity="0.2"/>
<rect x="770" y="70" width="570" height="10" rx="5" fill="#222222" fill-opacity="0.2"/>
<rect x="770" y="91" width="267" height="10" rx="5" fill="#222222" fill-opacity="0.2"/>
<rect x="770" y="112" width="65" height="10" rx="5" fill="#222222" fill-opacity="0.2"/>
<rect x="770" y="153" width="37.8" height="9" rx="4.5" fill="#222222" fill-opacity="0.2"/>
<rect x="770" y="170" width="570" height="10" rx="5" fill="#222222" fill-opacity="0.2"/>
<rect x="770" y="225" width="37.8" height="9" rx="4.5" fill="#222222" fill-opacity="0.2"/>
<rect x="770" y="242" width="570" height="10" rx="5" fill="#222222" fill-opacity="0.2"/>
<rect x="770" y="263" width="260" height="10" rx="5" fill="#222222" fill-opacity="0.2"/>
<rect x="770" y="284" width="560" height="10" rx="5" fill="#222222" fill-opacity="0.2"/>
<rect x="770" y="325" width="37.8" height="9" rx="4.5" fill="#222222" fill-opacity="0.2"/>
<rect x="770" y="342" width="570" height="10" rx="5" fill="#222222" fill-opacity="0.2"/>
<rect x="770" y="363" width="533" height="10" rx="5" fill="#222222" fill-opacity="0.2"/>
<rect x="770" y="384" width="422" height="10" rx="5" fill="#222222" fill-opacity="0.2"/>
<rect x="770" y="405" width="113" height="10" rx="5" fill="#222222" fill-opacity="0.2"/>
<rect x="770" y="453" width="37.8" height="9" rx="4.5" fill="#222222" fill-opacity="0.2"/>
<rect x="770" y="470" width="570" height="10" rx="5" fill="#222222" fill-opacity="0.2"/>
<rect x="770" y="525" width="37.8" height="9" rx="4.5" fill="#222222" fill-opacity="0.2"/>
<rect x="770" y="542" width="570" height="10" rx="5" fill="#222222" fill-opacity="0.2"/>
<rect x="770" y="563" width="532" height="10" rx="5" fill="#222222" fill-opacity="0.2"/>
<rect x="770" y="584" width="67" height="10" rx="5" fill="#222222" fill-opacity="0.2"/>
<rect x="770" y="625" width="37.8" height="9" rx="4.5" fill="#222222" fill-opacity="0.2"/>
<rect x="770" y="642" width="570" height="10" rx="5" fill="#222222" fill-opacity="0.2"/>
<rect x="770" y="663" width="368" height="10" rx="5" fill="#222222" fill-opacity="0.2"/>
<rect x="770" y="684" width="144" height="10" rx="5" fill="#222222" fill-opacity="0.2"/>
<rect x="770" y="725" width="37.8" height="9" rx="4.5" fill="#222222" fill-opacity="0.2"/>
<rect x="770" y="742" width="570" height="10" rx="5" fill="#222222" fill-opacity="0.2"/>
<rect x="770" y="797" width="37.8" height="9" rx="4.5" fill="#222222" fill-opacity="0.2"/>
<rect x="770" y="814" width="162" height="10" rx="5" fill="#222222" fill-opacity="0.2"/>
<rect x="770" y="869" width="37.8" height="9" rx="4.5" fill="#222222" fill-opacity="0.2"/>
<rect x="770" y="886" width="205.2" height="10" rx="5" fill="#222222" fill-opacity="0.2"/>
</svg>
