<svg width="915" height="181" viewBox="0 0 915 181" fill="none" xmlns="http://www.w3.org/2000/svg">
<path d="M85 139C85 147.837 77.8366 155 69 155C60.1634 155 53 147.837 53 139C53 130.163 60.1634 123 69 123C77.8366 123 85 130.163 85 139Z" fill="#FC8C3C"/>
<path d="M0 109H14C47.1371 109 74 135.863 74 169V181H60C26.8629 181 0 154.137 0 121V109Z" fill="#4FE4C4"/>
<path d="M69 151C69 117.863 95.8629 91 129 91H141V121C141 154.137 114.137 181 81 181H69V151Z" fill="#B2F260"/>
<path d="M548 78C548 69.1634 555.163 62 564 62C572.837 62 580 69.1634 580 78C580 86.8366 572.837 94 564 94C555.163 94 548 86.8366 548 78Z" fill="#FC8C3C"/>
<path d="M633 108H619C585.863 108 559 81.1371 559 48V36H573C606.137 36 633 62.8629 633 96V108Z" fill="#4FE4C4"/>
<path d="M564 66C564 99.1371 537.137 126 504 126H492V96C492 62.8629 518.863 36 552 36H564V66Z" fill="#B2F260"/>
<path d="M367 102C367 110.837 359.837 118 351 118C342.163 118 335 110.837 335 102C335 93.1634 342.163 86 351 86C359.837 86 367 93.1634 367 102Z" fill="#FC8C3C"/>
<path d="M282 72H296C329.137 72 356 98.8629 356 132V144H342C308.863 144 282 117.137 282 84V72Z" fill="#4FE4C4"/>
<path d="M351 114C351 80.8629 377.863 54 411 54H423V84C423 117.137 396.137 144 363 144H351V114Z" fill="#B2F260"/>
<path d="M266 114C266 105.163 273.163 98 282 98C290.837 98 298 105.163 298 114C298 122.837 290.837 130 282 130C273.163 130 266 122.837 266 114Z" fill="#FC8C3C"/>
<path d="M351 144H337C303.863 144 277 117.137 277 84V72H291C324.137 72 351 98.8629 351 132V144Z" fill="#4FE4C4"/>
<path d="M282 102C282 135.137 255.137 162 222 162H210V132C210 98.8629 236.863 72 270 72H282V102Z" fill="#B2F260"/>
<path d="M226 120C226 128.837 218.837 136 210 136C201.163 136 194 128.837 194 120C194 111.163 201.163 104 210 104C218.837 104 226 111.163 226 120Z" fill="#FC8C3C"/>
<path d="M141 90H155C188.137 90 215 116.863 215 150V162H201C167.863 162 141 135.137 141 102V90Z" fill="#4FE4C4"/>
<path d="M210 132C210 98.8629 236.863 72 270 72H282V102C282 135.137 255.137 162 222 162H210V132Z" fill="#B2F260"/>
<path d="M125 132C125 123.163 132.163 116 141 116C149.837 116 157 123.163 157 132C157 140.837 149.837 148 141 148C132.163 148 125 140.837 125 132Z" fill="#FC8C3C"/>
<path d="M210 162H196C162.863 162 136 135.137 136 102V90H150C183.137 90 210 116.863 210 150V162Z" fill="#4FE4C4"/>
<path d="M141 120C141 153.137 114.137 180 81 180H69V150C69 116.863 95.8629 90 129 90H141V120Z" fill="#B2F260"/>
<path d="M830 42C830 33.1634 837.163 26 846 26C854.837 26 862 33.1634 862 42C862 50.8366 854.837 58 846 58C837.163 58 830 50.8366 830 42Z" fill="#FC8C3C"/>
<path d="M915 72H901C867.863 72 841 45.1371 841 12V0H855C888.137 0 915 26.8629 915 60V72Z" fill="#4FE4C4"/>
<path d="M846 30C846 63.1371 819.137 90 786 90H774V60C774 26.8629 800.863 0 834 0H846V30Z" fill="#B2F260"/>
<path d="M790 48C790 56.8366 782.837 64 774 64C765.163 64 758 56.8366 758 48C758 39.1634 765.163 32 774 32C782.837 32 790 39.1634 790 48Z" fill="#FC8C3C"/>
<path d="M705 18H719C752.137 18 779 44.8629 779 78V90H765C731.863 90 705 63.1371 705 30V18Z" fill="#4FE4C4"/>
<path d="M774 60C774 26.8629 800.863 0 834 0H846V30C846 63.1371 819.137 90 786 90H774V60Z" fill="#B2F260"/>
<path d="M689 60C689 51.1634 696.163 44 705 44C713.837 44 721 51.1634 721 60C721 68.8366 713.837 76 705 76C696.163 76 689 68.8366 689 60Z" fill="#FC8C3C"/>
<path d="M774 90H760C726.863 90 700 63.1371 700 30V18H714C747.137 18 774 44.8629 774 78V90Z" fill="#4FE4C4"/>
<path d="M705 48C705 81.1371 678.137 108 645 108H633V78C633 44.8629 659.863 18 693 18H705V48Z" fill="#B2F260"/>
<path d="M508 84C508 92.8366 500.837 100 492 100C483.163 100 476 92.8366 476 84C476 75.1634 483.163 68 492 68C500.837 68 508 75.1634 508 84Z" fill="#FC8C3C"/>
<path d="M423 54H437C470.137 54 497 80.8629 497 114V126H483C449.863 126 423 99.1371 423 66V54Z" fill="#4FE4C4"/>
<path d="M492 96C492 62.8629 518.863 36 552 36H564V66C564 99.1371 537.137 126 504 126H492V96Z" fill="#B2F260"/>
<path d="M649 66C649 74.8366 641.837 82 633 82C624.163 82 617 74.8366 617 66C617 57.1634 624.163 50 633 50C641.837 50 649 57.1634 649 66Z" fill="#FC8C3C"/>
<path d="M564 36H578C611.137 36 638 62.8629 638 96V108H624C590.863 108 564 81.1371 564 48V36Z" fill="#4FE4C4"/>
<path d="M633 78C633 44.8629 659.863 18 693 18H705V48C705 81.1371 678.137 108 645 108H633V78Z" fill="#B2F260"/>
<path d="M407 96C407 87.1634 414.163 80 423 80C431.837 80 439 87.1634 439 96C439 104.837 431.837 112 423 112C414.163 112 407 104.837 407 96Z" fill="#FC8C3C"/>
<path d="M492 126H478C444.863 126 418 99.1371 418 66V54H432C465.137 54 492 80.8629 492 114V126Z" fill="#4FE4C4"/>
<path d="M423 84C423 117.137 396.137 144 363 144H351V114C351 80.8629 377.863 54 411 54H423V84Z" fill="#B2F260"/>
</svg>
